<svg xmlns="http://www.w3.org/2000/svg" viewBox="0 0 96 96" role="img"><defs><linearGradient id="g" x1="0" y1="0" x2="1" y2="1"><stop stop-color="#0b6b57"/><stop offset="1" stop-color="#d29a2a"/></linearGradient></defs><rect width="96" height="96" rx="28" fill="#f4f8f2"/><path d="M20 22h56M20 48h56M20 74h56M22 20v56M48 20v56M74 20v56M20 22l54 52M74 22 20 74" stroke="#0b6b57" stroke-width="3" opacity=".45"/><g fill="url(#g)"><circle cx="22" cy="22" r="6"/><circle cx="48" cy="22" r="6"/><circle cx="74" cy="22" r="6"/><circle cx="22" cy="48" r="6"/><circle cx="48" cy="48" r="7"/><circle cx="74" cy="48" r="6"/><circle cx="22" cy="74" r="6"/><circle cx="48" cy="74" r="6"/><circle cx="74" cy="74" r="6"/></g></svg>